PathFileType	4	(X/Y/Z)	7_coords_data.trc
DataRate	CameraRate	NumFrames	NumMarkers	Units	OrigDataRate	OrigDataStartFrame	OrigNumFrames
30.0	30.0	8	21	m	30.0	10	56
Frame#	Time	THUMB_TIP	THUMB_IP	THUMB_MCP	THUMB_CMC	INDEX_TIP	INDEX_DIP	INDEX_PIP	INDEX_MCP	MIDDLE_TIP	MIDDLE_DIP	MIDDLE_PIP	MIDDLE_MCP	RING_TIP	RING_DIP	RING_PIP	RING_MCP	PINKY_TIP	PINKY_DIP	PINKY_PIP	PINKY_MCP	WRIST
X1	Y1	Z1	X2	Y2	Z2	X3	Y3	Z3	X4	Y4	Z4	X5	Y5	Z5	X6	Y6	Z6	X7	Y7	Z7	X8	Y8	Z8	X9	Y9	Z9	X10	Y10	Z10	X11	Y11	Z11	X12	Y12	Z12	X13	Y13	Z13	X14	Y14	Z14	X15	Y15	Z15	X16	Y16	Z16	X17	Y17	Z17	X18	Y18	Z18	X19	Y19	Z19	X20	Y20	Z20	X21	Y21	Z21
9	0.3	-0.044004501342773436	-0.07632810211181641	0.9940430297851562	-0.046767898559570316	-0.056633800506591794	1.0113099975585937	-0.0582322998046875	-0.040086299896240234	1.032719970703125	-0.05878239822387695	-0.010110199928283692	1.0500699462890626	-0.019996700286865236	-0.020978500366210937	0.917958984375	-0.03361080169677735	-0.018538000106811524	0.9355560302734375	-0.045404701232910155	-0.016253000259399415	0.9554249877929688	-0.0539984016418457	-0.012728099822998046	0.9914959716796875	-0.014940099716186523	0.02239940071105957	0.9055230102539062	-0.026184700012207032	0.019667600631713866	0.9274520263671875	-0.038856700897216795	0.016031700134277342	0.9522310180664062	-0.049461498260498046	0.010078700065612792	0.9886370239257812	-0.00970641040802002	0.04134930038452148	0.9223419799804687	-0.020112100601196288	0.03889130020141601	0.9433610229492188	-0.03104240036010742	0.03562730026245117	0.9659550170898438	-0.04054119873046875	0.02780080032348633	0.9962949829101563	-0.0035413000583648683	0.07574210357666016	0.96647900390625	-0.012412199974060059	0.06564469909667969	0.9804240112304687	-0.020257600784301756	0.05641260147094727	0.9923920288085938	-0.03182789993286133	0.04089950180053711	1.0099500122070313	-0.07305180358886719	0.019402900695800782	1.063260009765625
10	0.3333333333333333	-0.046332298278808595	-0.07676599884033203	0.99460498046875	-0.048795398712158204	-0.0570171012878418	1.0118400268554688	-0.059932098388671876	-0.04036370086669922	1.033260009765625	-0.06021670150756836	-0.010405200004577637	1.0506600341796875	-0.022113100051879882	-0.021320899963378905	0.9182769775390625	-0.03552280044555664	-0.018861499786376953	0.936041015625	-0.047102798461914064	-0.016502700805664062	0.9560570068359375	-0.05556179809570312	-0.012902099609375	0.9920419921875	-0.01748430061340332	0.022300100326538085	0.9056430053710938	-0.02834149932861328	0.019451799392700194	0.9277340087890625	-0.040617801666259765	0.015759699821472167	0.9526719970703125	-0.05085770034790039	0.009798589706420899	0.9891119995117188	-0.01177649974822998	0.04111249923706055	0.9226329956054687	-0.021906700134277344	0.03861019897460938	0.9437550048828125	-0.03252239990234375	0.03529190063476562	0.96639501953125	-0.041851898193359376	0.02744300079345703	0.9968460083007813	-0.005001480102539061	0.07546119689941407	0.9670430297851562	-0.013752300262451172	0.06537960052490234	0.9809240112304688	-0.02151580047607422	0.05612979888916016	0.9929010009765625	-0.033026798248291016	0.04059000015258789	1.010530029296875	-0.07445279693603515	0.019287500381469726	1.064030029296875
11	0.36666666666666664	-0.04837630081176758	-0.07725389862060547	0.995280029296875	-0.05056240081787109	-0.05741490173339844	1.01247998046875	-0.06152009963989258	-0.04057659912109375	1.0339599609375	-0.06161399841308594	-0.010625399589538575	1.05125	-0.025525800704956053	-0.02175849914550781	0.9177000122070312	-0.038229999542236326	-0.01944109916687012	0.936156982421875	-0.04904719924926758	-0.01713920021057129	0.9566619873046875	-0.057013500213623045	-0.013279600143432617	0.992552978515625	-0.020830499649047853	0.02190810012817383	0.9054390258789062	-0.031079299926757814	0.01896489906311035	0.9278460083007812	-0.04277529907226563	0.01522879981994629	0.9530809936523438	-0.05239920043945313	0.009405750274658203	0.9896810302734375	-0.014363699913024903	0.04066389846801758	0.922510009765625	-0.024180099487304686	0.03807350158691406	0.9438880004882813	-0.03435010147094727	0.034787899017333986	0.96668701171875	-0.043268199920654296	0.027014299392700194	0.99731298828125	-0.006797560214996338	0.0751509017944336	0.967219970703125	-0.015484100341796874	0.06500180053710937	0.9812059936523437	-0.023155500411987304	0.055761798858642575	0.9932310180664062	-0.034511001586914065	0.040264400482177734	1.0108599853515625	-0.07577870178222657	0.01904829978942871	1.0645400390625
12	0.4	-0.050479900360107424	-0.07792630004882813	0.9961530151367187	-0.052497398376464846	-0.05803089904785156	1.013239990234375	-0.06317119979858399	-0.04100699996948242	1.0346700439453125	-0.06310910034179687	-0.0109483003616333	1.0519300537109375	-0.028831199645996095	-0.022430200576782227	0.9172839965820313	-0.0407223014831543	-0.020141000747680663	0.936468017578125	-0.05079270172119141	-0.0179153995513916	0.9572620239257813	-0.05848210144042969	-0.013931300163269043	0.9931699829101562	-0.023421499252319337	0.021274499893188477	0.9054420166015625	-0.03304700088500977	0.01815570068359375	0.928125	-0.0442333984375	0.014385299682617187	0.9536409912109375	-0.05362310028076172	0.008761899948120117	0.9902570190429687	-0.015456899642944336	0.03931209945678711	0.923010986328125	-0.025240999221801758	0.036905200958251956	0.9443989868164062	-0.0354192008972168	0.03383750152587891	0.96725	-0.044478099822998045	0.026397199630737306	0.9979530029296875	-0.007588319778442383	0.07414209747314453	0.967718017578125	-0.016368799209594727	0.06411009979248047	0.9816640014648438	-0.024131799697875978	0.05499470138549805	0.9937329711914062	-0.03572890090942383	0.03964059829711914	1.0113699951171875	-0.07710829925537109	0.01875510025024414	1.065219970703125
13	0.43333333333333335	-0.05231560134887695	-0.07870210266113281	0.99681201171875	-0.05409120178222656	-0.05870880126953125	1.0138400268554688	-0.06452220153808594	-0.04166370010375976	1.03518994140625	-0.06432969665527344	-0.01153600025177002	1.05252001953125	-0.030567100524902344	-0.023101100921630858	0.9176099853515625	-0.04210950088500977	-0.02090119934082031	0.9369459838867188	-0.051965301513671874	-0.018670299530029296	0.9579359741210938	-0.05961800003051758	-0.014640899658203125	0.9937739868164063	-0.026606000900268555	0.020696100234985353	0.9051510009765625	-0.03530830001831055	0.017274900436401366	0.9283099975585938	-0.045667800903320316	0.013362799644470215	0.954156982421875	-0.05463940048217773	0.007929619789123534	0.9908900146484375	-0.01711470031738281	0.03813529968261719	0.923260009765625	-0.026528499603271485	0.035726699829101566	0.9448049926757812	-0.036455501556396486	0.03273809814453125	0.9677659912109375	-0.04546500015258789	0.025574800491333007	0.9984920043945312	-0.008307239532470704	0.07298490142822266	0.9681740112304688	-0.017199800491333007	0.0630993995666504	0.9821370239257813	-0.025072700500488283	0.054077201843261716	0.99427197265625	-0.0367317008972168	0.03888629913330078	1.0119299926757812	-0.07832879638671875	0.018289100646972655	1.0658699951171875
14	0.4666666666666667	-0.05296300125122071	-0.07946939849853515	0.9975590209960937	-0.054748600006103515	-0.059517101287841795	1.0146300048828125	-0.06520690155029298	-0.04241130065917969	1.0358599853515624	-0.06514949798583984	-0.012199299812316895	1.0531199951171875	-0.03191740036010742	-0.02401219940185547	0.9180789794921875	-0.04343289947509766	-0.021804100036621095	0.9374539794921875	-0.05325619888305664	-0.01956520080566406	0.9584580078125	-0.06080950164794922	-0.015588600158691407	0.9944760131835938	-0.029692800521850585	0.019851299285888673	0.9049340209960938	-0.037655101776123044	0.01627989959716797	0.9283870239257812	-0.04732979965209961	0.012313599586486817	0.9544039916992187	-0.0557843017578125	0.0070802001953125	0.9913289794921875	-0.018986700057983398	0.03697259902954102	0.92327001953125	-0.028133800506591797	0.03459650039672851	0.9450089721679688	-0.0378406982421875	0.03170669937133789	0.9680460205078125	-0.0465260009765625	0.024731700897216796	0.9988140258789062	-0.009336050033569337	0.07188369750976563	0.9682470092773438	-0.01824970054626465	0.06208340072631836	0.9822750244140624	-0.026146699905395508	0.05314440155029297	0.9944219970703125	-0.03782410049438477	0.038105201721191403	1.0122000122070312	-0.07909780120849609	0.017651399612426757	1.066280029296875
15	0.5	-0.05319179916381836	-0.08031379699707031	0.998176025390625	-0.05513869857788086	-0.06036930084228516	1.0151500244140625	-0.06584049987792968	-0.04326020050048828	1.0363900146484375	-0.06573519897460937	-0.013071000099182129	1.05356005859375	-0.0319778003692627	-0.025067100524902342	0.918875	-0.04387720108032227	-0.022746000289916992	0.9379249877929687	-0.05410430145263672	-0.02046139907836914	0.95875	-0.06163800048828125	-0.016446300506591797	0.9949310302734375	-0.03062470054626465	0.018880100250244142	0.9052130126953125	-0.03852569961547852	0.015353899955749511	0.9286890258789062	-0.04815950012207031	0.011398500442504882	0.95477197265625	-0.05644820022583008	0.00617563009262085	0.9916220092773438	-0.019099300384521484	0.03554100036621094	0.9238170166015625	-0.02854280090332031	0.033348098754882816	0.945458984375	-0.03849100112915039	0.030676599502563476	0.9684769897460938	-0.04717829895019531	0.023784900665283205	0.9991900024414062	-0.009432760238647461	0.07045909881591797	0.9685549926757813	-0.018527000427246094	0.06083269882202148	0.982635986328125	-0.026558099746704103	0.052052398681640626	0.9947890014648437	-0.03847090148925781	0.03717959976196289	1.0125499877929687	-0.07964659881591797	0.016896900177001954	1.0667099609375
16	0.5333333333333333	-0.05318149948120117	-0.08125240325927735	0.9984849853515625	-0.055324798583984376	-0.06132590103149414	1.0155399780273437	-0.0661272964477539	-0.04426499938964844	1.0367099609375	-0.06599410247802734	-0.014199500083923339	1.0539200439453125	-0.031416299819946286	-0.02615369987487793	0.9198920288085938	-0.04375650024414063	-0.023633699417114257	0.9384719848632812	-0.054318199157714846	-0.02120949935913086	0.9590969848632812	-0.06200709915161133	-0.017315900802612305	0.995114013671875	-0.030827999114990234	0.01831970024108887	0.9057780151367187	-0.03888510131835937	0.014774600028991699	0.9291710205078125	-0.048628501892089844	0.010749699592590332	0.9552260131835938	-0.05678440093994141	0.005255469799041748	0.9920040283203125	-0.018748899459838868	0.034584400177001956	0.9245770263671875	-0.02854960060119629	0.032537498474121095	0.946	-0.03879949951171875	0.029891000747680665	0.9688599853515625	-0.04750080108642578	0.02284830093383789	0.9996530151367188	-0.009236860275268554	0.06928389739990234	0.969156005859375	-0.018420900344848633	0.0596963005065918	0.983176025390625	-0.026600799560546874	0.05094329833984375	0.9953569946289063	-0.0387047004699707	0.03611800003051758	1.0131400146484375	-0.07989739990234375	0.015830400466918946	1.0671700439453125
